o White_Pawn015
v 9.100651169300708 3.5975849628448486 3.211232688651173
v 9.100651169300708 3.04807710647583 2.6617236997939036
v 8.873038137436541 3.04807710647583 3.211232688651173
v 9.26159914779726 3.5975849628448486 2.822671678290455
v 9.100651169300708 2.498568058013916 3.211232688651173
v 9.26159914779726 2.498568058013916 2.822671678290455
v 9.650160158157977 3.8251988887786865 3.211232688651173
v 9.650160158157977 2.270953893661499 3.211232688651173
v 9.650160158157977 2.498568058013916 2.6617236997939036
v 9.650160158157977 3.04807710647583 2.434109714255421
v 9.650160158157977 3.5975849628448486 2.6617236997939036
v 10.038721168518695 2.498568058013916 2.822671678290455
v 10.199669147015246 3.04807710647583 2.6617236997939036
v 10.038721168518695 3.5975849628448486 2.822671678290455
v 10.427282178879413 3.04807710647583 3.211232688651173
v 10.199669147015246 3.5975849628448486 3.211232688651173
v 10.199669147015246 2.498568058013916 3.211232688651173
v 10.038721168518695 2.498568058013916 3.5997936990118906
v 10.199669147015246 3.04807710647583 3.760741677508442
v 10.038721168518695 3.5975849628448486 3.5997936990118906
v 9.650160158157977 2.498568058013916 3.760740664229481
v 9.650160158157977 3.04807710647583 3.9883547093726084
v 9.650160158157977 3.5975849628448486 3.760740664229481
v 9.26159914779726 2.498568058013916 3.5997936990118906
v 9.100652182579669 3.04807710647583 3.760740664229481
v 9.26159914779726 3.5975849628448486 3.5997936990118906
v 10.304182136536273 0.45680299401283264 2.557210710272877
v 10.679160202026996 0.2809379994869232 3.211232688651173
v 10.377773130417498 0.2809379994869232 2.4836197163916514
v 10.575087154389056 0.45680299401283264 3.211232688651173
v 8.621160114288958 0.2809379994869232 3.2112316886511754
v 8.996139133453998 0.45680299401283264 2.5572096969939158
v 8.922548139572772 0.2809379994869232 2.48361870311269
v 8.725233161926898 0.45680299401283264 3.2112316886511754
v 8.922547185898456 0.2809379994869232 3.938844707236378
v 8.996138179779681 0.45680299401283264 3.8652537133551523
v 9.650160158157977 0.45680299401283264 2.2863056924200937
v 9.650160158157977 0.2809379994869232 2.1822326447821543
v 8.710176134586963 -0.3994840085506439 4.151215698943226
v 8.150160158157977 -0.7795959711074829 3.2112316886511754
v 8.589499199867877 -0.7795959711074829 4.271892693266956
v 8.320822203636798 -0.3994840085506439 3.2112316886511754
v 8.841230178356799 -0.3177739977836609 2.4023006822920725
v 9.650160158157977 -0.3994840085506439 1.8818947341299936
v 8.710178161144885 -0.3994840085506439 2.271247711405842
v 9.650160158157977 -0.3177739977836609 2.0672316815710947
v 10.459091151238116 -0.3177739977836609 2.4023016955710337
v 10.590144181728991 -0.3994840085506439 2.2712486650801584
v 9.650160158157977 0.45680299401283264 4.1361596848822515
v 9.650160158157977 0.2809379994869232 4.240232732520191
v 11.069254124642047 0.01148299966007471 3.211232688651173
v 10.653611147881183 0.01148299966007471 2.2077816989279673
v 9.650160158157977 0.01148299966007471 1.792138722167103
v 10.304182136536273 0.45680299401283264 3.8652546670294687
v 10.377773130417498 0.2809379994869232 3.9388456609106943
v 10.653611147881183 0.01148299966007471 4.214683678374378
v 9.650160158157977 -0.7795959711074829 4.711232688651172
v 9.650160158157977 -0.3994840085506439 4.540570643172352
v 8.841229165077838 -0.3177739977836609 4.02016266845235
v 8.506159151077899 -0.3177739977836609 3.2112316886511754
v 8.646711194992694 0.01148299966007471 2.207780745253651
v 8.646709168434771 0.01148299966007471 4.2146827247000616
v 9.650160158157977 0.01148299966007471 4.630326655135242
v 8.231066191673907 0.01148299966007471 3.2112316886511754
v 10.590144181728991 -0.3994840085506439 4.151216712222187
v 10.71082016277376 -0.7795959711074829 4.271892693266956
v 10.459091151238116 -0.3177739977836609 4.0201636817313116
v 9.650160158157977 -0.3177739977836609 4.3552336957312505
v 11.150160158157977 -0.7795959711074829 3.211232688651173
v 10.71082016277376 -0.7795959711074829 2.150572684035389
v 10.979498112679156 -0.3994840085506439 3.211232688651173
v 10.794161165238055 -0.3177739977836609 3.211232688651173
v 9.650160158157977 -0.7795959711074829 1.7112326886511728
v 8.58950110721651 -0.7795959711074829 2.150570657477467
v 10.180103147507342 0.5177000164985657 2.6812896993018076
v 9.650160158157977 0.5177000164985657 2.461780693755238
v 9.120218182087573 0.5177000164985657 2.6812886860228464
v 10.399612153053912 0.5177000164985657 3.211232688651173
v 10.180103147507342 0.5177000164985657 3.741175678000538
v 9.13828417110506 2.0219171047210693 3.2112316886511754
v 8.900708163262042 0.5177000164985657 3.2112316886511754
v 9.288210148096713 2.0219171047210693 2.849280681834309
v 9.650160158157977 0.5177000164985657 3.960684683547108
v 9.120217168808612 0.5177000164985657 3.741174664721577
v 10.275778139115008 2.168916940689087 3.836850669608204
v 9.650160158157977 2.0219171047210693 3.7231086757040903
v 10.01211115169588 2.0219171047210693 3.5731836821890757
v 9.650160158157977 2.168916940689087 4.095990684256641
v 10.01211115169588 2.0219171047210693 2.84928169511327
v 10.162036145210894 2.0219171047210693 3.211232688651173
v 9.288209164620074 2.0219171047210693 3.573182698712437
v 9.650160158157977 2.0219171047210693 2.6993567015982554
v 9.024543130875262 2.168916940689087 2.5856136944151804
v 9.650160158157977 2.41703200340271 2.9840936925269053
v 9.650160158157977 2.168916940689087 2.326474693045704
v 9.489549154520663 2.41703200340271 3.050620686636059
v 8.765402162552508 2.168916940689087 3.2112316886511754
v 9.024541163921985 2.168916940689087 3.836850669608204
v 10.534918153763446 2.168916940689087 3.211232688651173
v 10.275778139115008 2.168916940689087 2.5856147076941416
v 9.81077116179529 2.41703200340271 3.050620686636059
v 9.42302216041151 2.41703200340271 3.2112316886511754
v 9.877299154282245 2.41703200340271 3.211232688651173
v 9.489549154520663 2.41703200340271 3.3718436922884867
v 9.81077116179529 2.41703200340271 3.3718436922884867
v 9.650160158157977 2.41703200340271 3.4383706863976404
vt -0.7485889792442322 0.6629840135574341
vt -0.707082986831665 0
vt -1 0
vt -0.5293440222740173 0.6629840135574341
vt -0.7485889792442322 -0.6629840135574341
vt -0.5293440222740173 -0.6629840135574341
vt 0 1
vt 0 -1
vt 0 -0.6629840135574341
vt 0 0
vt 0 0.6629840135574341
vt 0.5293440222740173 -0.6629840135574341
vt 0.707082986831665 0
vt 0.5293440222740173 0.6629840135574341
vt 1 0
vt 0.7485889792442322 0.6629840135574341
vt 0.7485889792442322 -0.6629840135574341
vt 0.5293440222740173 -0.6629840135574341
vt 0.707082986831665 0
vt 0.5293440222740173 0.6629840135574341
vt 0 -0.6629840135574341
vt 0 0
vt 0 0.6629840135574341
vt -0.5293440222740173 -0.6629840135574341
vt -0.707082986831665 0
vt -0.5293440222740173 0.6629840135574341
vt 0.4799340069293976 0.7343670129776001
vt 0.7048860192298889 0.7092810273170471
vt 0.49842798709869385 0.7092810273170471
vt 0.6787319779396057 0.7343670129776001
vt -0.7048860192298889 0.7092810273170471
vt -0.4799340069293976 0.7343670129776001
vt -0.49842798709869385 0.7092810273170471
vt -0.6787319779396057 0.7343670129776001
vt -0.49842798709869385 0.7092810273170471
vt -0.4799340069293976 0.7343670129776001
vt 0 0.7343670129776001
vt 0 0.7092810273170471
vt -0.526199996471405 0.6679589748382568
vt -0.8843650221824646 -0.46672001481056213
vt -0.6253550052642822 -0.46672001481056213
vt -0.744193971157074 0.6679589748382568
vt -0.6772670149803162 0.2873319983482361
vt 0 0.6679589748382568
vt -0.526199996471405 0.6679589748382568
vt 0 0.2873319983482361
vt 0.6772670149803162 0.2873319983482361
vt 0.526199996471405 0.6679589748382568
vt 0 0.7343670129776001
vt 0 0.7092810273170471
vt 0.9932860136032104 0.11560399830341339
vt 0.7023530006408691 0.11560399830341339
vt 0 0.11560399830341339
vt 0.4799340069293976 0.7343670129776001
vt 0.49842798709869385 0.7092810273170471
vt 0.7023530006408691 0.11560399830341339
vt 0 -0.46672001481056213
vt 0 0.6679589748382568
vt -0.6772670149803162 0.2873319983482361
vt -0.9578229784965515 0.2873319983482361
vt -0.7023530006408691 0.11560399830341339
vt -0.7023530006408691 0.11560399830341339
vt 0 0.11560399830341339
vt -0.9932860136032104 0.11560399830341339
vt 0.526199996471405 0.6679589748382568
vt 0.6253550052642822 -0.46672001481056213
vt 0.6772670149803162 0.2873319983482361
vt 0 0.2873319983482361
vt 0.8843650221824646 -0.46672001481056213
vt 0.6253550052642822 -0.46672001481056213
vt 0.744193971157074 0.6679589748382568
vt 0.9578229784965515 0.2873319983482361
vt 0 -0.46672001481056213
vt -0.6253550052642822 -0.46672001481056213
vt 0.49711599946022034 0.7111120223999023
vt 0 0.7111120223999023
vt -0.49711599946022034 0.7111120223999023
vt 0.7030550241470337 0.7111120223999023
vt 0.49711599946022034 0.7111120223999023
vt -0.8175299763679504 -0.5758540034294128
vt -0.7030550241470337 0.7111120223999023
vt -0.5780820250511169 -0.5758540034294128
vt 0 0.7111120223999023
vt -0.49711599946022034 0.7111120223999023
vt 0.707082986831665 0.0061039999127388
vt 0 -0.5758540034294128
vt 0.5780820250511169 -0.5758540034294128
vt 0 0.0061039999127388
vt 0.5780820250511169 -0.5758540034294128
vt 0.8175299763679504 -0.5758540034294128
vt -0.5780820250511169 -0.5758540034294128
vt 0 -0.5758540034294128
vt -0.707082986831665 0.0061039999127388
vt 0 0.9750360250473022
vt 0 0.0061039999127388
vt -0.1569869965314865 0.9750360250473022
vt -0.9999690055847168 0.0061039999127388
vt -0.707082986831665 0.0061039999127388
vt 0.9999690055847168 0.0061039999127388
vt 0.707082986831665 0.0061039999127388
vt 0.1569869965314865 0.9750360250473022
vt -0.22199200093746185 0.9750360250473022
vt 0.22199200093746185 0.9750360250473022
vt -0.1569869965314865 0.9750360250473022
vt 0.1569869965314865 0.9750360250473022
vt 0 0.9750360250473022
vn -0.7745964653048018 0.6233475905659892 -0.10694904054213399
vn -0.7071070196050905 -8.159349780020646e-9 -0.7071065427679242
vn -0.9961505054471459 0.061984029403025005 0.06198508366019199
vn -0.4999995849278944 0.7071073681866613 -0.4999995849278944
vn -0.8164969198412688 -0.5773497898930666 3.9038042666603115e-7
vn -0.5000000551543109 -0.7071067031865644 -0.5000000551543109
vn 2.2690891388066348e-9 1 3.996396991112761e-9
vn 3.7627359561476226e-10 -1 2.471227666944742e-9
vn -0.1069495243453063 -0.6233472897184552 -0.7745966406091427
vn 0.06198434765777516 -0.06198435510835559 -0.996150530977744
vn -1.3710327303159254e-8 0.5773512212314381 -0.8164959077316719
vn 0.4720978336937011 -0.6233472093481078 -0.6233473285573948
vn 0.7071071984189259 2.3262672186989646e-7 -0.7071063639538847
vn 0.623347123432529 0.6233477790836424 -0.4720973522695103
vn 0.9999999999999927 7.090675269161243e-10 1.2202497146063161e-7
vn 0.7745964653048018 0.6233475905659892 0.10694904054213399
vn 0.7745970422898785 -0.6233468599708428 -0.10694911986670456
vn 0.623347381860661 -0.6233470242328036 0.47209800773522415
vn 0.707106572570244 -2.44672144859323e-7 0.707106989802747
vn 0.4720967950636109 0.6233479900857178 0.6233473344346333
vn 0.10694913216986106 -0.6233468882538037 0.7745970178308289
vn -7.998444857545738e-7 3.365288421263001e-7 0.9999999999996236
vn -0.10694957289334245 0.6233473879102845 0.7745965548873535
vn -0.4720979845749524 -0.6233465561656594 0.6233478674678213
vn -0.7071067215818793 2.369807857206431e-7 0.7071068407911709
vn -0.6233469268199117 0.6233471056338465 0.4720985010801006
vn 0.5561526493665008 0.7075320578854968 -0.43599612116042497
vn 0.6587238780311724 0.7512657496949836 0.0410198226081885
vn 0.49479347837662313 0.7512658294626026 -0.43678263156612546
vn 0.659349684041168 0.7497767852610969 0.055612646388630456
vn -0.6558863528831359 0.7480292925660283 -0.10131766659781416
vn -0.5059232767437132 0.7141310651169561 -0.48379588659250305
vn -0.39449363660462583 0.7683030311109101 -0.5040686689968392
vn -0.6575180237438111 0.7476938900744295 0.09286492985729305
vn -0.5246675614217552 0.7338885670080711 0.43142962485970815
vn -0.4060303864817936 0.8014746304289417 0.43906462170418203
vn 0.06581367568551726 0.7789905686564196 -0.6235721722760805
vn 0.04102024074921466 0.7512657663341006 -0.6587238330160168
vn -0.6020842797668116 0.5243944531871603 0.6020838625342976
vn -0.14232207501713096 -0.9896548754873872 0.018101226114884277
vn -0.09415157179417338 -0.9910958451537932 0.09415151218952836
vn -0.7980491972267482 0.5968056810435276 -0.08330941051234322
vn -0.7531352005113233 -0.22352945691697856 -0.6187260715705856
vn 0.09164280342268709 0.6311480928665922 -0.7702296290403883
vn -0.5053976792612032 0.5968056342867661 -0.6232144259249466
vn -0.12562341991387616 -0.3866885603490286 -0.9136140944974185
vn 0.6172837592537793 -0.06281978614107345 -0.7842285604533362
vn 0.6610495417673911 0.5526345346753494 -0.5075515485281099
vn -0.055613190784475804 0.7497767920487208 0.6593496304055224
vn -0.04102024773472835 0.751265877025916 0.6587237063384489
vn 0.9370116843048377 0.34502855869703597 -0.05444627773922802
vn 0.70853757886367 0.1728765667170218 -0.6841697099537101
vn 0.01723117047250005 0.1728760489649057 -0.9847928505317406
vn 0.4269067486579003 0.7497765666922742 0.5055548713932899
vn 0.43678264924199367 0.7512658086051107 0.4947934944419286
vn 0.7357274918563323 0.03598610325743989 0.6763209726891036
vn -2.56401021524574e-7 -0.16163498065176374 0.9868506133299194
vn -3.927458990620799e-7 0.6957852168327547 0.7182499091798357
vn -0.6862719578565817 0.24096144467310415 0.6862713618101406
vn -0.9700522833627677 -0.2235299604176467 0.09504169789290423
vn -0.6841694164687023 0.17287673177651683 -0.7085378219821054
vn -0.6763212837742142 0.03598605924895982 0.7357272080423076
vn 0.05444589955943627 0.3450285464952138 0.9370117107723702
vn -0.9847926954090356 0.17287689202663944 -0.017231577763395782
vn 0.505398327653939 0.5968049700645609 0.623214536183841
vn 0.3190757851604288 -0.914957381576561 0.2470700977917379
vn 0.6756390929452641 0.03903565555944122 0.7361983657134438
vn -4.924196550936393e-7 -0.46552369989115705 0.8850354144549276
vn 0.14232195800175984 -0.9896548907430749 -0.018101312075593744
vn 0.12053564470111017 -0.9804283607645502 -0.15566434326789375
vn 0.7980496507905395 0.5968051717713456 0.08330871395041667
vn 0.936741420549649 -0.3493765625634046 0.021249201349814197
vn -0.11911754506406852 -0.3296157175970712 -0.9365706002063471
vn -0.31907615792210325 -0.914957067345208 -0.24707078006256733
vn 0.6025162738729181 0.31198247249554417 -0.7346026657818918
vn -0.09908921120057908 0.23014124876048545 -0.9680993408956602
vn -0.7404926368860677 0.27269616537465396 -0.6142535763896516
vn 0.9579501166931518 0.2726963166661702 -0.08926529451181332
vn 0.7404931744251917 0.27269631479036904 0.6142528620441704
vn -0.9856447626140855 -0.09709157842651112 -0.13812178441531822
vn -0.9579501581330305 0.27269640090223557 0.08926459246459018
vn -0.599289251272547 -0.0970913043525765 -0.7946229747045486
vn -0.00572882924977205 0.25155282298792797 0.9678266155475531
vn -0.678928364937761 0.3093176139129208 0.6658670205124713
vn 0.6120256180761121 0.4862799640679857 0.6236637229826596
vn -0.0000010940757654317802 -0.37878999925184376 0.9254826505481296
vn 0.5992898445120743 -0.09709108783098266 0.7946225537502005
vn 0.02336632273738098 0.6538572310413163 0.756257057075645
vn 0.7896491147582146 -0.19540850467857648 -0.5816096559212636
vn 0.9864506822848533 0.013839555115139856 0.16347329486482512
vn -0.7060343204847609 0.05506897111283494 0.706033247601128
vn 0.138121249372231 -0.09709102806676012 -0.9856448918047482
vn -0.561439041731549 0.5674402758332375 -0.6023269342988566
vn -0.09337963131474941 0.9353448716157119 -0.34118941307975714
vn 0.05724141981962334 0.48549796966245995 -0.8723618178890353
vn -0.19093055597385644 0.9628556752084925 -0.19093054107269558
vn -0.9264982552158075 0.37444678795401265 -0.03729056278721199
vn -0.6478673226081272 0.40067100564485897 0.6478662497245201
vn 0.9576286511901738 0.28694697730175284 -0.024673845202478055
vn 0.5736662987547514 0.5846485742273291 -0.5736662987547514
vn 0.22197614742396285 0.9494488891880588 -0.22197611762164027
vn -0.3019939397475446 0.9533098448854995 -3.7602891185953836e-7
vn 0.2745808294665864 0.9586229085907914 0.075149765231653
vn -0.15400060654443293 0.9759958160250211 0.15399993599219475
vn 0.16370124929389177 0.9438171875798964 0.2870731917271165
vn -0.0933797071024598 0.9353450036652975 0.3411890303333668
f 1/1/1 2/2/2 3/3/3
f 1/1/1 4/4/4 2/2/2
f 5/5/5 2/2/2 6/6/6
f 3/3/3 2/2/2 5/5/5
f 1/1/1 7/7/7 4/4/4
f 8/8/8 5/5/5 6/6/6
f 2/2/2 9/9/9 6/6/6
f 2/2/2 10/10/10 9/9/9
f 4/4/4 7/7/7 11/11/11
f 8/8/8 6/6/6 9/9/9
f 2/2/2 11/11/11 10/10/10
f 4/4/4 11/11/11 2/2/2
f 10/10/10 12/12/12 9/9/9
f 10/10/10 13/13/13 12/12/12
f 11/11/11 7/7/7 14/14/14
f 8/8/8 9/9/9 12/12/12
f 11/11/11 13/13/13 10/10/10
f 11/11/11 14/14/14 13/13/13
f 14/14/14 15/15/15 13/13/13
f 14/14/14 16/16/16 15/15/15
f 13/13/13 17/17/17 12/12/12
f 13/13/13 15/15/15 17/17/17
f 14/14/14 7/7/7 16/16/16
f 8/8/8 12/12/12 17/17/17
f 8/8/8 17/17/17 18/18/18
f 16/16/16 19/19/19 15/15/15
f 16/16/16 20/20/20 19/19/19
f 15/15/15 18/18/18 17/17/17
f 15/15/15 19/19/19 18/18/18
f 16/16/16 7/7/7 20/20/20
f 8/8/8 18/18/18 21/21/21
f 20/20/20 22/22/22 19/19/19
f 20/20/20 23/23/23 22/22/22
f 19/19/19 21/21/21 18/18/18
f 19/19/19 22/22/22 21/21/21
f 20/20/20 7/7/7 23/23/23
f 8/8/8 21/21/21 24/24/24
f 23/23/23 25/25/25 22/22/22
f 23/23/23 26/26/26 25/25/25
f 22/22/22 24/24/24 21/21/21
f 22/22/22 25/25/25 24/24/24
f 23/23/23 7/7/7 26/26/26
f 8/8/8 24/24/24 5/5/5
f 26/26/26 3/3/3 25/25/25
f 26/26/26 1/1/1 3/3/3
f 25/25/25 5/5/5 24/24/24
f 25/25/25 3/3/3 5/5/5
f 26/26/26 7/7/7 1/1/1
f 27/27/27 28/28/28 29/29/29
f 27/27/27 30/30/30 28/28/28
f 31/31/31 32/32/32 33/33/33
f 34/34/34 32/32/32 31/31/31
f 35/35/35 34/34/34 31/31/31
f 36/36/36 34/34/34 35/35/35
f 37/37/37 29/29/29 38/38/38
f 37/37/37 27/27/27 29/29/29
f 32/32/32 38/38/38 33/33/33
f 32/32/32 37/37/37 38/38/38
f 39/39/39 40/40/40 41/41/41
f 39/39/39 42/42/42 40/40/40
f 43/43/43 44/44/44 45/45/45
f 43/43/43 46/46/46 44/44/44
f 44/44/44 47/47/47 48/48/48
f 46/46/46 47/47/47 44/44/44
f 49/49/49 35/35/35 50/50/50
f 49/49/49 36/36/36 35/35/35
f 29/29/29 51/51/51 52/52/52
f 29/29/29 28/28/28 51/51/51
f 38/38/38 52/52/52 53/53/53
f 38/38/38 29/29/29 52/52/52
f 54/54/54 50/50/50 55/55/55
f 54/54/54 49/49/49 50/50/50
f 28/28/28 56/56/56 51/51/51
f 28/28/28 55/55/55 56/56/56
f 57/57/57 39/39/39 41/41/41
f 58/58/58 39/39/39 57/57/57
f 59/59/59 42/42/42 39/39/39
f 59/59/59 60/60/60 42/42/42
f 60/60/60 45/45/45 42/42/42
f 60/60/60 43/43/43 45/45/45
f 33/33/33 53/53/53 61/61/61
f 33/33/33 38/38/38 53/53/53
f 50/50/50 62/62/62 63/63/63
f 50/50/50 35/35/35 62/62/62
f 55/55/55 63/63/63 56/56/56
f 55/55/55 50/50/50 63/63/63
f 31/31/31 61/61/61 64/64/64
f 31/31/31 33/33/33 61/61/61
f 35/35/35 64/64/64 62/62/62
f 35/35/35 31/31/31 64/64/64
f 65/65/65 57/57/57 66/66/66
f 65/65/65 58/58/58 57/57/57
f 67/67/67 58/58/58 65/65/65
f 67/67/67 68/68/68 58/58/58
f 58/58/58 59/59/59 39/39/39
f 68/68/68 59/59/59 58/58/58
f 48/48/48 69/69/69 70/70/70
f 48/48/48 71/71/71 69/69/69
f 72/72/72 56/56/56 67/67/67
f 51/51/51 56/56/56 72/72/72
f 61/61/61 46/46/46 43/43/43
f 61/61/61 53/53/53 46/46/46
f 71/71/71 66/66/66 69/69/69
f 71/71/71 65/65/65 66/66/66
f 52/52/52 72/72/72 47/47/47
f 52/52/52 51/51/51 72/72/72
f 53/53/53 47/47/47 46/46/46
f 53/53/53 52/52/52 47/47/47
f 44/44/44 70/70/70 73/73/73
f 44/44/44 48/48/48 70/70/70
f 62/62/62 60/60/60 59/59/59
f 62/62/62 64/64/64 60/60/60
f 64/64/64 43/43/43 60/60/60
f 64/64/64 61/61/61 43/43/43
f 70/70/70 74/74/74 73/73/73
f 70/70/70 40/40/40 74/74/74
f 69/69/69 40/40/40 70/70/70
f 69/69/69 41/41/41 40/40/40
f 66/66/66 41/41/41 69/69/69
f 66/66/66 57/57/57 41/41/41
f 37/37/37 75/75/75 27/27/27
f 76/76/76 75/75/75 37/37/37
f 77/77/77 37/37/37 32/32/32
f 77/77/77 76/76/76 37/37/37
f 78/78/78 54/54/54 30/30/30
f 78/78/78 79/79/79 54/54/54
f 75/75/75 30/30/30 27/27/27
f 75/75/75 78/78/78 30/30/30
f 45/45/45 73/73/73 74/74/74
f 45/45/45 44/44/44 73/73/73
f 56/56/56 68/68/68 67/67/67
f 56/56/56 63/63/63 68/68/68
f 68/68/68 62/62/62 59/59/59
f 63/63/63 62/62/62 68/68/68
f 80/80/80 77/77/77 81/81/81
f 80/80/80 82/82/82 77/77/77
f 81/81/81 32/32/32 34/34/34
f 81/81/81 77/77/77 32/32/32
f 79/79/79 49/49/49 54/54/54
f 79/79/79 83/83/83 49/49/49
f 30/30/30 55/55/55 28/28/28
f 30/30/30 54/54/54 55/55/55
f 84/84/84 34/34/34 36/36/36
f 84/84/84 81/81/81 34/34/34
f 83/83/83 36/36/36 49/49/49
f 83/83/83 84/84/84 36/36/36
f 42/42/42 74/74/74 40/40/40
f 42/42/42 45/45/45 74/74/74
f 47/47/47 71/71/71 48/48/48
f 47/47/47 72/72/72 71/71/71
f 72/72/72 65/65/65 71/71/71
f 72/72/72 67/67/67 65/65/65
f 85/85/85 86/86/86 87/87/87
f 85/85/85 88/88/88 86/86/86
f 89/89/89 78/78/78 75/75/75
f 89/89/89 90/90/90 78/78/78
f 83/83/83 91/91/91 84/84/84
f 86/86/86 91/91/91 83/83/83
f 92/92/92 75/75/75 76/76/76
f 92/92/92 89/89/89 75/75/75
f 87/87/87 83/83/83 79/79/79
f 87/87/87 86/86/86 83/83/83
f 90/90/90 79/79/79 78/78/78
f 90/90/90 87/87/87 79/79/79
f 82/82/82 76/76/76 77/77/77
f 82/82/82 92/92/92 76/76/76
f 91/91/91 81/81/81 84/84/84
f 91/91/91 80/80/80 81/81/81
f 93/93/93 94/94/94 95/95/95
f 96/96/96 94/94/94 93/93/93
f 97/97/97 82/82/82 80/80/80
f 97/97/97 93/93/93 82/82/82
f 86/86/86 98/98/98 91/91/91
f 88/88/88 98/98/98 86/86/86
f 89/89/89 99/99/99 90/90/90
f 100/100/100 99/99/99 89/89/89
f 99/99/99 87/87/87 90/90/90
f 99/99/99 85/85/85 87/87/87
f 93/93/93 92/92/92 82/82/82
f 93/93/93 95/95/95 92/92/92
f 98/98/98 80/80/80 91/91/91
f 98/98/98 97/97/97 80/80/80
f 95/95/95 89/89/89 92/92/92
f 95/95/95 100/100/100 89/89/89
f 96/96/96 101/101/101 94/94/94
f 102/102/102 101/101/101 96/96/96
f 102/102/102 103/103/103 101/101/101
f 104/104/104 103/103/103 102/102/102
f 104/104/104 105/105/105 103/103/103
f 106/106/106 105/105/105 104/104/104
f 98/98/98 102/102/102 97/97/97
f 104/104/104 102/102/102 98/98/98
f 95/95/95 101/101/101 100/100/100
f 94/94/94 101/101/101 95/95/95
f 105/105/105 88/88/88 85/85/85
f 105/105/105 106/106/106 88/88/88
f 102/102/102 93/93/93 97/97/97
f 102/102/102 96/96/96 93/93/93
f 106/106/106 98/98/98 88/88/88
f 106/106/106 104/104/104 98/98/98
f 101/101/101 99/99/99 100/100/100
f 101/101/101 103/103/103 99/99/99
f 103/103/103 85/85/85 99/99/99
f 103/103/103 105/105/105 85/85/85
